<?xml version="1.0" encoding="utf-8"?>
<!-- Generator: Adobe Illustrator 16.0.0, SVG Export Plug-In . SVG Version: 6.00 Build 0)  -->
<!DOCTYPE svg PUBLIC "-//W3C//DTD SVG 1.1//EN" "http://www.w3.org/Graphics/SVG/1.1/DTD/svg11.dtd" [
	<!ENTITY ns_extend "http://ns.adobe.com/Extensibility/1.0/">
	<!ENTITY ns_ai "http://ns.adobe.com/AdobeIllustrator/10.0/">
	<!ENTITY ns_graphs "http://ns.adobe.com/Graphs/1.0/">
	<!ENTITY ns_vars "http://ns.adobe.com/Variables/1.0/">
	<!ENTITY ns_imrep "http://ns.adobe.com/ImageReplacement/1.0/">
	<!ENTITY ns_sfw "http://ns.adobe.com/SaveForWeb/1.0/">
	<!ENTITY ns_custom "http://ns.adobe.com/GenericCustomNamespace/1.0/">
	<!ENTITY ns_adobe_xpath "http://ns.adobe.com/XPath/1.0/">
]>
<svg version="1.1" id="Layer_1" xmlns:x="&ns_extend;" xmlns:i="&ns_ai;" xmlns:graph="&ns_graphs;"
	 xmlns="http://www.w3.org/2000/svg" xmlns:xlink="http://www.w3.org/1999/xlink" x="0px" y="0px" width="512px" height="512px"
	 viewBox="0 0 512 512" enable-background="new 0 0 512 512" xml:space="preserve">
<metadata>
	<sfw  xmlns="&ns_sfw;">
		<slices></slices>
		<sliceSourceBounds  height="352.945" width="491.591" bottomLeftOrigin="true" y="-2254.472" x="1836.51"></sliceSourceBounds>
		<optimizationSettings>
			<targetSettings  fileFormat="PNG8Format" targetSettingsID="0">
				
					<PNG8Format  transparency="true" interlaced="false" noMatteColor="false" matteColor="#FFFFFF" autoReduce="false" webShiftPercent="0" numColors="128" ditherAlgorithm="diffusion" ditherPercent="88" reductionAlgorithm="selective" rolloverMasterPalette="false">
					<colorTable  isExact="false"></colorTable>
					<lockedColors></lockedColors>
					<colorShiftEntries></colorShiftEntries>
				</PNG8Format>
			</targetSettings>
		</optimizationSettings>
	</sfw>
</metadata>
<g>
	<path fill-rule="evenodd" clip-rule="evenodd" fill="#174477" d="M140.273,270.279c-8.898-3.389-17.548-7.375-26.164-11.434
		c-18.724-8.798-37.033-18.367-54.042-30.263c-11.392-7.98-22.047-16.771-30.381-28.062c-4.806-6.511-8.335-13.612-9.619-21.691
		c-1.665-10.503,1.275-19.932,6.943-28.665c6.256-9.635,14.755-17.016,23.902-23.736c14.969-10.994,31.448-19.279,48.299-26.883
		c16.156-7.292,32.758-13.447,49.478-19.28c0.364-0.124,0.754-0.173,1.26,0.09c-2.204,1.153-4.408,2.287-6.612,3.447
		c-18.624,9.826-36.669,20.564-53.072,33.869c-10.232,8.302-19.537,17.482-26.736,28.617c-6.76,10.456-10.754,21.755-9.95,34.406
		c0.67,10.613,4.656,20.057,10.431,28.823c7.978,12.112,18.451,21.837,29.792,30.67c13.968,10.903,29.088,20.007,44.655,28.4
		c0.771,0.414,1.516,0.863,2.278,1.293C140.788,270.246,140.729,270.477,140.273,270.279z"/>
	<path fill-rule="evenodd" clip-rule="evenodd" fill="#174477" d="M380.524,270.635c11.55-6.313,23.023-12.75,33.952-20.107
		c13.819-9.313,26.875-19.494,37.671-32.328c7.522-8.947,13.422-18.789,15.931-30.372c2.851-13.172,0.075-25.426-6.304-37.067
		c-5.559-10.156-13.19-18.606-21.646-26.361c-16.265-14.92-34.872-26.412-54.102-36.984c-4.159-2.293-8.386-4.457-12.701-6.743
		c0.738-0.282,1.31-0.116,1.924,0.091c28.489,9.908,56.501,20.912,82.499,36.444c11.283,6.744,21.98,14.283,30.91,24.06
		c5.476,6.014,10.066,12.585,12.554,20.432c3.636,11.499,1.597,22.27-4.194,32.558c-5.194,9.213-12.461,16.637-20.381,23.47
		c-14.282,12.329-30.421,21.832-46.991,30.647c-15.467,8.236-31.448,15.394-47.596,22.179c-0.489,0.207-1.011,0.322-1.525,0.49
		c-0.099-0.094-0.14-0.184-0.107-0.275C380.45,270.676,380.482,270.635,380.524,270.635z"/>
	<path fill-rule="evenodd" clip-rule="evenodd" fill="#E8AE65" d="M174.622,261.033c-19.437-8.26-38.341-17.564-56.187-28.915
		c-9.446-6.014-18.394-12.643-26.33-20.555c-5.252-5.245-9.868-11.01-13.089-17.754c-6.512-13.637-4.433-26.329,4.242-38.292
		c6.909-9.512,16.023-16.586,25.682-22.999c13.952-9.246,29.022-16.321,44.349-22.899c8.394-3.596,16.943-6.828,25.534-9.917
		c0.754-0.273,1.534-0.457,2.312-0.68c0.116,0.107,0.141,0.207,0.092,0.298c-0.059,0.083-0.101,0.123-0.142,0.123
		c-14.083,7.623-27.885,15.684-40.62,25.444c-11.15,8.541-21.483,17.903-29.047,29.932c-5.674,9.022-9.08,18.74-8.417,29.535
		c0.688,11.26,5.477,20.937,12.146,29.785c8.219,10.902,18.532,19.601,29.485,27.572c9.362,6.818,19.279,12.758,29.362,18.441
		c0.396,0.215,0.745,0.531,1.126,0.797C174.97,261.1,174.813,261.131,174.622,261.033z"/>
	<path fill-rule="evenodd" clip-rule="evenodd" fill="#E8AE65" d="M347.85,260.561c15.336-8.458,30.099-17.77,43.371-29.261
		c8.484-7.34,16.072-15.484,21.641-25.327c9.676-17.101,8.938-33.96-1.26-50.58c-5.799-9.453-13.43-17.281-21.822-24.4
		c-14.789-12.542-31.266-22.535-48.376-31.531c-0.123-0.373-0.016-0.548,0.399-0.432c26.172,9.379,51.829,19.868,74.985,35.593
		c9.627,6.527,18.359,14.058,24.704,24c4.087,6.405,6.264,13.396,5.916,20.995c-0.381,8.559-3.977,15.956-8.938,22.741
		c-7.432,10.19-17.126,17.977-27.35,25.129c-18.424,12.881-38.532,22.69-58.978,31.837c-1.293,0.582-2.595,1.111-3.895,1.656
		C347.834,261.107,347.743,260.934,347.85,260.561z"/>
	<path fill-rule="evenodd" clip-rule="evenodd" fill="#174477" d="M229.483,316.633c6.363-5.078,13.232-6.961,20.729-6.395
		c4.192,0.314,8.319,1.117,11.003,4.928c0.694,0.979,1.259,0.34,1.839-0.066c5.585-3.869,11.78-5.393,18.508-4.889
		c2.354,0.176,4.69,0.49,6.909,1.318c4.434,1.664,6.786,5.311,6.802,10.604c0.033,7.6,0.059,15.195-0.024,22.801
		c-0.018,1.822,0.474,2.469,2.386,2.379c3.713-0.176,3.713-0.068,3.704,3.652c-0.009,4.508-0.009,4.508-4.557,4.508
		c-7.133,0-14.259-0.043-21.383,0.033c-1.525,0.016-2.047-0.432-1.939-1.939c0.116-1.541,0.107-3.1,0.009-4.631
		c-0.092-1.375,0.473-1.807,1.757-1.684c0.802,0.076,1.623-0.072,2.411,0.035c1.688,0.223,2.021-0.555,2.004-2.08
		c-0.065-6.188,0-12.377-0.033-18.566c-0.032-6.346-2.41-8.334-8.698-7.383c-1.343,0.199-2.669,0.449-3.87,1.07
		c-2.551,1.316-4.143,3.09-4.035,6.313c0.199,6.115,0.116,12.236,0.018,18.359c-0.024,1.75,0.447,2.359,2.271,2.305
		c4.009-0.125,4.009-0.035,4.009,3.984c0,4.184,0,4.184-4.274,4.184c-7.059,0-14.117-0.084-21.185,0.049
		c-2.004,0.033-2.675-0.621-2.36-2.502c0.024-0.199-0.009-0.404,0-0.605c0.049-1.607-0.464-3.586,0.298-4.721
		c0.778-1.17,2.874-0.316,4.39-0.406c0.92-0.051,1.376-0.332,1.359-1.285c-0.093-7.266,0.282-14.531-0.191-21.787
		c-0.207-3.307-1.483-4.5-4.73-4.99c-3.248-0.486-6.271,0.176-9.047,1.949c-1.889,1.199-2.618,2.932-2.601,5.119
		c0.066,6.322,0.149,12.643,0.075,18.955c-0.026,1.65,0.456,2.072,2.029,2.047c3.944-0.059,3.953,0.01,3.944,3.943
		c0,4.234,0,4.234-4.316,4.234c-7.2,0-14.39-0.043-21.59,0.023c-1.517,0.018-2.029-0.447-1.915-1.963
		c0.134-1.533,0.068-3.082,0-4.623c-0.048-1.168,0.307-1.648,1.584-1.674c4.474-0.107,4.474-0.148,4.474-4.555
		c0-7.135-0.042-14.268,0.033-21.393c0.016-1.615-0.357-2.236-2.105-2.188c-3.869,0.109-3.869,0.018-3.86-3.803
		c0.009-4.357,0.009-4.357,4.399-4.357c4.573,0,9.146,0.051,13.721-0.033c1.549-0.023,2.27,0.373,2.088,2.029
		C229.394,313.988,229.483,315.068,229.483,316.633z"/>
	<path fill-rule="evenodd" clip-rule="evenodd" fill="#94B1CF" d="M299.393,110.763c15.947,5.27,31.582,11.35,46.586,18.939
		c12.145,6.146,23.793,13.065,33.18,23.164c5.285,5.683,9.13,12.146,9.719,20.083c0.438,5.865-1.344,11.258-4.268,16.295
		c-4.996,8.617-12.318,15.004-20.182,20.821c-13.57,10.04-28.491,17.704-43.818,24.621c-5.012,2.263-10.099,4.367-15.154,6.547
		c-0.396,0.082-0.513-0.068-0.38-0.449c12.65-6.611,24.854-13.918,35.882-23.04c7.646-6.32,14.641-13.289,19.445-22.112
		c7.257-13.348,6.396-26.413-1.748-39.063c-6.125-9.52-14.392-16.992-23.381-23.685c-11.019-8.219-22.949-14.956-35.136-21.26
		c-0.349-0.182-0.739-0.298-1.111-0.446C298.887,110.812,298.986,110.647,299.393,110.763z"/>
	<path fill-rule="evenodd" clip-rule="evenodd" fill="#94B1CF" d="M222.674,111.559c-10.653,5.452-21.067,11.291-30.885,18.144
		c-10.25,7.14-19.776,15.062-26.917,25.458c-4.45,6.479-7.349,13.563-7.548,21.533c-0.256,9.578,3.479,17.795,9.047,25.285
		c8.01,10.771,18.459,18.84,29.527,26.172c5.998,3.968,12.228,7.548,18.477,11.084c0.811,0.464,1.573,1.012,2.36,1.516
		c-0.158,0.2-0.339,0.208-0.521,0.042c-5.311-1.913-10.405-4.333-15.526-6.669c-13.762-6.305-27.182-13.238-39.601-21.955
		c-8.055-5.658-15.618-11.864-21.277-20.073c-8.731-12.685-7.829-26.032,2.254-37.68c7.572-8.74,16.983-15.004,26.909-20.587
		c15.674-8.816,32.32-15.46,49.278-21.367c1.325-0.456,2.668-0.87,4.01-1.301C222.691,110.986,222.757,111.193,222.674,111.559z"/>
	<path fill-rule="evenodd" clip-rule="evenodd" fill="#DB6D27" d="M258.813,376.797c-79.037,0-158.083,0-237.129,0.018
		c-1.516,0-2.807,0.107-2.643-2.098c0.107-1.391,0.613-1.963,1.948-1.896c0.546,0.033,1.076,0.008,1.624,0.008
		c157.544,0,315.097,0,472.65,0c0.331,0,0.67,0.01,1.001-0.008c1.492-0.074,2.544,0.051,2.535,2.105
		c0,2.039-1.103,1.881-2.442,1.881c-39.288-0.01-78.573-0.01-117.861-0.01C172.617,376.797,466.654,376.797,258.813,376.797z"/>
	<path fill-rule="evenodd" clip-rule="evenodd" fill="#174477" d="M453.24,310.941c2.826,0,5.643,0.023,8.469-0.018
		c1.233-0.016,1.937,0.25,1.697,1.707c-0.547,3.33,0.844,5.832,3.355,7.912c1.292,1.068,2.452,2.305,3.596,3.521
		c0.663,0.705,1.135,0.705,1.814,0.025c2.088-2.098,4.217-4.152,6.371-6.182c1.366-1.283,0.721-2.908,0.779-4.383
		c0.107-2.584,0.033-2.584,2.643-2.584c4.367,0,8.74,0.041,13.107-0.033c1.44-0.023,1.963,0.465,1.748,1.871
		c-0.101,0.656-0.042,1.344-0.042,2.014c-0.009,1.277,0.364,2.719-0.108,3.787c-0.563,1.283-2.162,0.158-3.271,0.547
		c-1.367,0.479-2.526,1.219-3.563,2.205c-3.266,3.098-6.497,6.236-9.819,9.277c-1.101,1.01-1.143,1.648-0.048,2.727
		c4.126,4.051,8.178,8.176,12.211,12.311c1.102,1.135,2.295,1.814,3.92,1.623c1.425-0.174,1.896,0.531,1.838,1.898
		c-0.074,1.605-0.074,3.223,0.033,4.828c0.074,1.234-0.488,1.494-1.549,1.484c-5.782-0.023-11.566-0.033-17.35,0.01
		c-1.191,0.006-1.656-0.516-1.441-1.568c0.854-4.225-1.299-6.975-4.357-9.404c-1.201-0.951-2.195-2.168-3.246-3.303
		c-0.663-0.721-1.178-0.871-1.965-0.074c-2.236,2.229-4.491,4.447-6.859,6.527c-1.498,1.316-1.043,2.934-1.085,4.49
		c-0.101,3.754,0.555,3.281-3.323,3.305c-4.168,0.027-8.335-0.049-12.502,0.033c-1.439,0.035-1.938-0.488-1.806-1.863
		c0.074-0.805,0-1.617,0.018-2.418c0.015-1.145-0.249-2.404,0.157-3.389c0.504-1.219,1.912-0.232,2.899-0.539
		c1.391-0.449,2.484-1.301,3.529-2.262c3.694-3.422,7.331-6.912,11.102-10.248c1.384-1.227,1.251-1.957,0-3.166
		c-3.72-3.596-7.333-7.297-10.943-11.002c-1.136-1.16-2.429-1.641-3.995-1.467c-1.632,0.184-2.361-0.531-2.32-2.17
		c0.043-1.541,0.01-3.082-0.033-4.613c-0.031-1.203,0.632-1.451,1.666-1.436C447.459,310.965,450.351,310.941,453.24,310.941z"/>
	<path fill-rule="evenodd" clip-rule="evenodd" fill="#174477" d="M379.25,334.553c0-4.301-0.043-8.592,0.008-12.883
		c0.033-2.676-0.025-2.783-2.768-2.816c-3.935-0.043-3.389,0.547-3.413-3.414c-0.033-4.441-0.009-4.508,4.357-4.465
		c1.5,0.018,1.849-0.588,1.823-1.898c-0.074-4.033-0.033-8.061-0.158-12.088c-0.049-1.689,0.547-2.211,2.221-2.168
		c4.027,0.115,8.062,0.082,12.096,0.014c1.334-0.023,1.749,0.432,1.731,1.74c-0.065,4.102,0.018,8.203-0.051,12.297
		c-0.032,1.506,0.316,2.154,2.022,2.111c4.797-0.125,4.797-0.051,4.797,4.822c0,0.266-0.041,0.537,0.009,0.803
		c0.366,1.965-0.604,2.461-2.36,2.27c-0.994-0.107-2.013,0.01-3.025-0.023c-1.019-0.033-1.434,0.396-1.434,1.432
		c0.033,7.871-0.023,15.734,0.06,23.598c0.032,2.807,0.853,3.379,4.01,3.445c2.974,0.064,2.966,0.064,2.815,3.092
		c-0.033,0.803-0.033,1.613,0.009,2.418c0.158,3.223,0.167,3.256-2.991,3.297c-4.563,0.049-9.145,0.389-13.644-0.705
		c-4.067-0.986-5.974-3.197-6.073-7.373c-0.099-4.498-0.018-9.004-0.018-13.504C379.268,334.553,379.258,334.553,379.25,334.553z"/>
	<path fill-rule="evenodd" clip-rule="evenodd" fill="#174477" d="M122.379,318.457c1.466-1.336,2.577-2.488,3.828-3.457
		c4.656-3.611,10.015-4.971,15.839-4.879c4.549,0.059,4.549,0.008,4.549,4.623c0,1.482,0,2.957,0,4.439
		c-0.009,2.479-0.009,2.535-2.577,2.271c-3.346-0.348-6.676-0.496-10.042,0.016c-6.511,0.994-10,4.475-10.381,11.012
		c-0.265,4.49-0.09,8.998-0.14,13.496c-0.009,0.959,0.398,1.316,1.334,1.301c1.683-0.043,3.363,0.033,5.046-0.027
		c1.019-0.041,1.466,0.301,1.433,1.369c-0.059,1.814-0.041,3.637,0,5.441c0.025,1.045-0.381,1.428-1.417,1.418
		c-9.211-0.023-18.425-0.023-27.638,0.01c-1.126,0-1.549-0.391-1.499-1.525c0.066-1.748,0.075-3.498-0.009-5.246
		c-0.05-1.184,0.465-1.539,1.558-1.467c0.945,0.061,1.904-0.088,2.825,0.035c2.021,0.281,2.444-0.621,2.418-2.494
		c-0.09-7.73-0.09-15.461,0-23.189c0.026-1.896-0.43-2.592-2.443-2.51c-3.646,0.156-3.661,0.041-3.646-3.621
		c0-4.531,0-4.531,4.632-4.531c4.838,0,9.685,0.041,14.522-0.033c1.441-0.023,1.889,0.488,1.823,1.865
		C122.311,314.555,122.379,316.352,122.379,318.457z"/>
	<path fill-rule="evenodd" clip-rule="evenodd" fill="#DB6D27" d="M280.022,131.392c15.749,5.543,31.068,11.997,44.604,22.038
		c3.473,2.568,6.553,5.567,9.089,9.097c5.966,8.284,6.022,16.851,0.224,25.252c-4.209,6.08-9.81,10.67-15.783,14.854
		c-9.949,6.968-20.744,12.368-31.822,17.257c-0.438,0.2-0.836,0.456-1.457,0.1c5.252-3.1,10.414-6.213,15.27-9.792
		c5.856-4.341,11.383-9.023,15.791-14.897c9.246-12.319,9.154-24.382-0.324-36.569c-6.793-8.757-15.684-15.028-24.954-20.811
		c-3.471-2.171-7.092-4.101-10.646-6.139c-0.107-0.091-0.141-0.175-0.1-0.265C279.947,131.425,279.98,131.392,280.022,131.392z"/>
	<path fill-rule="evenodd" clip-rule="evenodd" fill="#DB6D27" d="M236.891,219.508c-0.547,0.349-0.861,0.299-1.185,0.15
		c-13.944-6.271-27.497-13.189-39.195-23.238c-3.843-3.306-7.183-7.068-9.56-11.599c-3.738-7.116-3.38-14.084,0.96-20.812
		c3.861-5.989,9.296-10.356,15.204-14.192c11.391-7.389,23.753-12.726,36.452-17.374c0.316-0.116,0.631-0.238,0.953-0.289
		c0.182-0.033,0.381,0.065,0.629,0.125c-0.479,0.869-1.391,1.067-2.121,1.48c-10.075,5.717-19.792,11.931-27.952,20.298
		c-3.249,3.331-6.082,6.985-8.186,11.17c-4.325,8.598-3.985,17.048,0.745,25.401c4.209,7.406,10.322,13.005,16.959,18.135
		c4.524,3.496,9.32,6.586,14.259,9.479C235.515,218.63,236.153,219.044,236.891,219.508z"/>
	<path fill-rule="evenodd" clip-rule="evenodd" fill="#174477" d="M432.529,329.143c0,5.246,0.049,10.48-0.033,15.717
		c-0.025,1.732,0.298,2.543,2.304,2.461c3.776-0.166,3.786-0.033,3.786,3.77c-0.01,4.383-0.01,4.383-4.475,4.383
		c-7.191,0-14.373-0.051-21.565,0.033c-1.623,0.016-2.344-0.373-2.179-2.113c0.142-1.531,0.083-3.09,0.008-4.633
		c-0.05-1.158,0.423-1.605,1.534-1.498c0.132,0.018,0.271,0.008,0.405,0.008c4.134-0.066,4.134-0.066,4.134-4.117
		c0-7.324-0.04-14.648,0.033-21.971c0.016-1.559-0.356-2.113-2.005-2.08c-4.009,0.076-4.009-0.008-4.018-4.127
		c0-4.033,0-4.033,3.976-4.033c5.312,0,10.621,0.066,15.923-0.041c1.816-0.033,2.306,0.588,2.272,2.328
		c-0.092,5.303-0.035,10.611-0.035,15.914C432.57,329.143,432.547,329.143,432.529,329.143z"/>
	<path fill-rule="evenodd" clip-rule="evenodd" fill="#708091" d="M23.06,432.1c-4.06-0.01-8.499-4.418-8.55-9.289
		c-0.017-1.309,1.939-3.387,3.223-3.496c0.729-0.057,0.67,0.498,0.811,0.912c0.366,1.078,0.754,2.162,1.483,3.064
		c1.144,1.408,2.619,2.08,4.433,1.85c1.865-0.232,2.975-1.418,3.604-3.115c1.326-3.629,0.513-6.918-2.437-9.479
		c-1.665-1.459-3.33-2.941-5.127-4.227c-6.687-4.797-6.505-15.617-2.949-20.629c1.979-2.783,4.647-3.977,8.028-3.447
		c3.554,0.564,5.707,2.777,6.842,6.082c0.373,1.07-2.18,4.266-3.28,4.125c-0.613-0.072-0.763-0.711-1.012-1.166
		c-0.959-1.691-2.187-2.967-4.325-2.576c-1.856,0.338-3.065,1.938-3.379,4.266c-0.34,2.418,0.381,4.506,2.004,6.297
		c1.358,1.506,3,2.674,4.606,3.893c7.033,5.336,8.848,15.277,4.191,22.834C29.539,430.723,27.11,432.156,23.06,432.1z"/>
	<path fill-rule="evenodd" clip-rule="evenodd" fill="#708091" d="M200.09,395.811c-0.067,2.395,0.736,4.15,2.169,5.559
		c1.343,1.311,2.734,2.627,4.301,3.637c7.671,4.963,8.085,13.391,5.609,20.59c-1.293,3.736-3.828,6.328-8.103,6.486
		c-5.221,0.199-9.794-4.176-9.91-9.396c-0.016-0.893,2.552-3.438,3.422-3.346c0.207,0.023,0.438,0.256,0.572,0.457
		c0.149,0.205,0.19,0.496,0.274,0.744c1.076,3.33,3.405,5.137,5.898,4.574c2.693-0.605,4.597-4.02,4.067-7.225
		c-0.463-2.842-2.154-4.855-4.356-6.529c-1.707-1.301-3.407-2.617-4.93-4.143c-4.715-4.738-5.725-13.049-2.263-18.807
		c1.823-3.039,4.507-4.631,8.054-4.275c3.545,0.35,5.848,2.502,7.132,5.75c0.604,1.533-1.234,4.234-2.858,4.291
		c-0.655,0.025-0.929-0.463-1.227-0.91c-1.109-1.723-2.386-3.174-4.739-2.451C201.167,391.438,200.097,393.301,200.09,395.811z"/>
	<path fill-rule="evenodd" clip-rule="evenodd" fill="#708091" d="M100.821,413.15c-1.441,6.463-3.613,12.717-5.451,19.322
		c-0.887-1.459-1.126-2.859-1.549-4.186c-2.66-8.234-5.311-16.471-7.896-24.73c-0.206-0.68-1.144-1.582,0.05-2.27
		c1.076-0.611,3.53-0.199,4.06,0.738c0.388,0.688,0.662,1.465,0.877,2.236c1.31,4.787,3.216,9.402,4.027,14.326
		c0.033,0.246,0.199,0.471,0.398,0.916c1.672-6.469,3.637-12.615,5.815-19.326c2.22,6.619,4.209,12.684,5.916,19.377
		c1.102-3.818,2.037-7.148,3.015-10.471c0.631-2.195,1.284-4.383,1.972-6.553c0.357-1.096,4.003-1.85,4.707-0.996
		c0.281,0.35,0.14,0.764,0.015,1.152c-3.146,9.76-6.313,19.527-9.468,29.295c-0.042,0.117-0.175,0.199-0.339,0.381
		c-1.856-6.428-3.902-12.734-5.412-19.195C101.319,412.811,101.069,412.811,100.821,413.15z"/>
	<path fill-rule="evenodd" clip-rule="evenodd" fill="#708093" d="M330.608,405.098c0.796-0.074,0.846-0.629,1.078-0.984
		c2.047-3.174,4.764-4.451,7.987-3.73c2.973,0.656,4.938,2.869,5.276,6.572c0.694,7.512,0.34,15.053,0.389,22.582
		c0.009,1.037-0.546,1.477-1.522,1.395c-1.186-0.117-2.726,0.463-3.107-1.385c-0.134-0.646-0.082-1.334-0.082-2.006
		c-0.027-5.045-0.027-10.09-0.076-15.135c-0.008-0.871-0.182-1.732-0.314-2.594c-0.307-1.889-1.228-3.299-3.206-3.672
		c-2.063-0.396-3.473,0.723-4.581,2.279c-1.459,2.055-1.316,4.49-1.395,6.811c-0.147,4.566-0.123,9.146-0.107,13.719
		c0,1.262-0.205,2.104-1.738,2.006c-1.375-0.092-2.775,0.051-2.768-1.996c0.018-8.684,0.018-17.357-0.024-26.031
		c0-1.6,0.928-1.674,2.112-1.666c1.177,0.018,2.195,0.092,2.088,1.689C330.576,403.658,330.608,404.361,330.608,405.098z"/>
	<path fill-rule="evenodd" clip-rule="evenodd" fill="#708091" d="M253.635,412.521c0-3.637,0.057-6.463-0.026-9.287
		c-0.04-1.457,0.416-2.07,1.948-1.988c1.425,0.082,2.701,0,2.675,2.039c-0.056,5.168,0,10.346-0.023,15.516
		c-0.009,1.426,0.157,2.818,0.655,4.16c0.77,2.055,2.153,3.049,4.257,3.023c2.088-0.025,3.489-1.068,4.177-3.148
		c0.646-1.938,0.654-3.959,0.646-5.975c0-4.631,0-9.27-0.05-13.9c-0.016-1.375,0.637-1.781,1.863-1.682
		c1.137,0.09,2.661-0.34,2.619,1.582c-0.134,6.643,0.464,13.297-0.405,19.926c-0.133,0.986-0.381,1.973-0.68,2.932
		c-1.342,4.398-3.878,6.363-8.161,6.381c-4.349,0.016-6.834-1.865-8.284-6.215C253.295,421.244,253.809,416.449,253.635,412.521z"/>
	<path fill-rule="evenodd" clip-rule="evenodd" fill="#708091" d="M443.896,408.072c0-6.861,0.018-13.719-0.01-20.578
		c0-1.283-0.124-2.42,1.766-2.379c2.677,0.066,3.072,0.273,3.081,2.51c0.018,11.301,0.009,22.594,0.009,33.893
		c0,2.76,0,2.76,2.824,2.77c2.156,0,4.311,0.031,6.465-0.01c1.217-0.033,1.623,0.449,1.623,1.674c0,4.938,0.033,4.93-4.93,4.938
		c-2.957,0-5.924-0.064-8.875,0.059c-1.498,0.059-1.996-0.35-1.979-1.898C443.938,422.057,443.896,415.066,443.896,408.072z"/>
	<path fill-rule="evenodd" clip-rule="evenodd" fill="#708091" d="M73.348,388.322c-3.28-1.027-4.391-0.291-4.93,2.891
		c-0.479,2.883-0.156,5.775-0.271,8.666c-0.051,1.443,0.951,1.416,1.913,1.393c3.247-0.084,2.809,0.057,2.824,2.842
		c0.017,2.939,0,3.006-2.965,3.074c-1.466,0.031-1.79,0.678-1.79,1.996c0.05,6.32,0.009,12.65,0.033,18.971
		c0.009,1.549,0.199,2.818-2.187,2.826c-2.437,0-2.336-1.293-2.32-2.941c0.041-6.115,0.017-12.238,0.083-18.359
		c0.018-1.566-0.182-2.693-2.13-2.477c-0.539,0.057-1.168,0.016-1.185-0.746c-0.033-1.475-0.066-2.949,0.026-4.424
		c0.042-0.846,0.837-0.762,1.416-0.746c1.4,0.035,1.823-0.629,1.823-1.988c0-3.553-0.173-7.115,0.348-10.67
		c0.613-4.143,2.296-6.248,5.701-6.828c2.601-0.445,3.602,0.373,3.611,2.959C73.348,385.895,73.348,387.039,73.348,388.322z"/>
	<path fill-rule="evenodd" clip-rule="evenodd" fill="#708093" d="M247.662,407.07c0,7.199-0.017,14.4,0.016,21.598
		c0.009,1.361-0.083,2.371-1.889,2.305c-1.656-0.068-2.883-0.232-2.866-2.363c0.033-14.738,0.033-29.467,0-44.199
		c-0.009-1.664,0.763-2.004,2.237-1.994c1.639,0,2.535,0.422,2.518,2.252C247.645,392.133,247.662,399.605,247.662,407.07z"/>
	<path fill-rule="evenodd" clip-rule="evenodd" fill="#708093" d="M392.621,420.574c1.74-6.279,3.313-11.963,4.896-17.646
		c0.389-1.4,3.704-2.428,4.847-1.475c0.712,0.596,0.09,1.26-0.091,1.832c-2.336,7.273-4.713,14.539-7.076,21.813
		c-0.762,2.354-1.508,4.713-2.26,7.1c-0.789-0.363-0.83-1.109-1.021-1.707c-2.875-8.855-5.732-17.729-8.55-26.609
		c-0.256-0.795-1.144-1.758-0.009-2.502c0.947-0.623,3.738,0.031,4.227,0.92c0.289,0.521,0.465,1.117,0.621,1.689
		C389.705,409.324,391.444,414.584,392.621,420.574z"/>
	<path fill-rule="evenodd" clip-rule="evenodd" fill="#708091" d="M468.576,419.09c0,3.223-0.024,6.455,0.009,9.688
		c0.023,1.291-0.099,2.252-1.79,2.188c-1.541-0.061-2.768-0.125-2.741-2.223c0.073-6.396-0.018-12.783,0.057-19.17
		c0.025-1.633-0.199-2.691-2.145-2.369c-0.134,0.025-0.308,0.031-0.399-0.033c-1.689-1.229-0.307-2.975-0.728-4.434
		c-0.232-0.777,0.05-1.498,1.109-1.449c1.781,0.082,2.271-0.811,2.162-2.494c-0.131-2.279,0.032-4.58-0.048-6.859
		c-0.06-1.367,0.33-1.988,1.797-1.898c1.366,0.092,2.791-0.182,2.726,1.939c-0.067,2.354,0.05,4.707-0.033,7.059
		c-0.042,1.434,0.198,2.395,1.931,2.262c1.218-0.1,1.647,0.623,1.614,1.766c-0.016,0.803,0.018,1.605,0.051,2.418
		c0.057,1.309-0.415,2.154-1.881,1.863c-1.449-0.289-1.724,0.398-1.706,1.658C468.608,412.355,468.576,415.729,468.576,419.09z"/>
	<path fill-rule="evenodd" clip-rule="evenodd" fill="#708093" d="M406.705,418.9c0-3.23-0.041-6.453,0.018-9.684
		c0.033-1.293-0.265-2.113-1.748-1.998c-1.451,0.109-1.906-0.654-1.799-1.98c0.059-0.66,0.066-1.34,0-2.014
		c-0.125-1.275,0.191-2.061,1.698-2.004c1.491,0.059,1.889-0.861,1.849-2.229c-0.067-2.287,0.058-4.572-0.041-6.859
		c-0.068-1.508,0.288-2.18,1.979-2.121c1.615,0.059,2.568,0.365,2.502,2.236c-0.082,2.344,0.059,4.707-0.016,7.051
		c-0.043,1.301,0.197,2.121,1.715,1.988c1.234-0.107,1.673,0.572,1.624,1.715c-0.035,0.738-0.026,1.482-0.009,2.221
		c0.025,1.168-0.314,1.98-1.691,1.922c-1.299-0.051-1.63,0.588-1.623,1.881c0.074,6.52,0.018,13.041,0.059,19.561
		c0.008,1.467-0.175,2.443-2.037,2.395c-1.707-0.049-2.604-0.422-2.52-2.402C406.813,425.355,406.705,422.123,406.705,418.9z"/>
	<path fill-rule="evenodd" clip-rule="evenodd" fill="#708091" d="M81.477,419.191c0,3.082-0.009,6.172,0,9.262
		c0.007,1.311,0.173,2.576-1.864,2.527c-1.781-0.043-2.702-0.457-2.668-2.504c0.1-6.313,0-12.625,0.067-18.938
		c0.016-1.516-0.216-2.51-2.039-2.346c-1.043,0.092-1.407-0.531-1.374-1.508c0.033-0.869,0.048-1.748,0-2.617
		c-0.059-1.178,0.414-1.764,1.624-1.74c1.358,0.033,1.838-0.629,1.79-1.996c-0.1-2.553,0.04-5.111-0.059-7.656
		c-0.057-1.457,0.671-1.707,1.847-1.615c1.161,0.084,2.603-0.297,2.61,1.615c0.009,2.545,0.042,5.096-0.007,7.646
		c-0.017,1.178,0.198,2.047,1.598,1.949c1.51-0.107,1.823,0.713,1.716,1.986c-0.066,0.738-0.092,1.492,0.017,2.213
		c0.182,1.342-0.333,1.871-1.658,1.758c-1.358-0.117-1.689,0.67-1.672,1.889c0.049,3.354,0.016,6.709,0.016,10.074
		C81.435,419.191,81.451,419.191,81.477,419.191z"/>
	<path fill-rule="evenodd" clip-rule="evenodd" fill="#708093" d="M279.467,419.084c0-3.223-0.041-6.445,0.024-9.67
		c0.024-1.465-0.314-2.352-1.995-2.221c-1.088,0.084-1.592-0.48-1.525-1.598c0.057-0.869,0.041-1.748,0.009-2.617
		c-0.051-1.094,0.429-1.65,1.532-1.617c1.615,0.059,2.031-0.803,1.979-2.287c-0.083-2.41,0.024-4.83-0.041-7.248
		c-0.042-1.268,0.331-1.881,1.698-1.781c1.276,0.1,2.678-0.191,2.651,1.807c-0.042,2.484,0.032,4.971-0.017,7.457
		c-0.033,1.307,0.349,2.078,1.807,1.979c1.309-0.1,1.814,0.572,1.697,1.84c-0.057,0.662-0.057,1.342,0,2.014
		c0.107,1.299-0.289,2.088-1.756,2.029c-1.441-0.066-1.773,0.77-1.756,2.055c0.082,6.512,0.115,13.023,0.158,19.525
		c0,1.111,0.015,2.264-1.601,2.188c-1.357-0.066-2.94,0.307-2.892-1.988C279.533,425.67,279.467,422.373,279.467,419.084z"/>
	<path fill-rule="evenodd" clip-rule="evenodd" fill="#2B4B82" d="M422.705,303.113c-2.486,0-4.98-0.068-7.459,0.023
		c-1.448,0.059-1.881-0.506-1.83-1.881c0.083-2.418,0.074-4.83,0.01-7.25c-0.043-1.291,0.396-1.789,1.73-1.771
		c5.228,0.049,10.464,0.041,15.699,0c1.292-0.01,1.799,0.463,1.757,1.789c-0.074,2.477-0.065,4.971,0,7.447
		c0.033,1.234-0.431,1.684-1.642,1.656C428.221,303.08,425.462,303.113,422.705,303.113z"/>
	<path fill-rule="evenodd" clip-rule="evenodd" fill="#708093" d="M148.855,404.377c0.497-0.895,0.795-1.475,1.144-2.029
		c1.334-2.162,3.994-2.742,6.148-1.408c0.679,0.422,0.911,0.928,0.696,1.682c-0.184,0.646-0.414,1.277-0.53,1.939
		c-0.324,1.756-0.664,3.055-3.032,1.846c-1.441-0.736-2.984,0.457-3.58,2.371c-0.695,2.188-0.953,4.447-0.944,6.75
		c0.033,4.367,0,8.734,0.024,13.107c0.009,1.326-0.04,2.379-1.863,2.338c-1.716-0.035-2.826-0.34-2.809-2.42
		c0.057-8.467,0.024-16.943,0.008-25.41c0-1.117,0.165-2.111,1.573-2.039c1.251,0.076,2.875-0.305,2.982,1.773
		C148.7,403.252,148.774,403.625,148.855,404.377z"/>
	<path fill-rule="evenodd" clip-rule="evenodd" fill="#708093" d="M295.756,416.299c0,4.234-0.018,8.467,0.016,12.709
		c0.009,1.135-0.099,2.088-1.574,1.924c-1.209-0.143-2.906,0.512-2.975-1.684c-0.048-1.408-0.148-2.809-0.158-4.225
		c-0.015-7.125-0.015-14.25,0-21.375c0.01-2.254,0.416-2.576,2.595-2.494c1.491,0.051,2.145,0.662,2.121,2.229
		C295.713,407.691,295.756,411.992,295.756,416.299z"/>
	<path fill-rule="evenodd" clip-rule="evenodd" fill="#7E8A9C" d="M296.211,388.164c0,2.916-1.283,4.838-2.9,4.68
		c-1.591-0.148-2.981-2.633-2.702-4.828c0.051-0.398,0.167-0.787,0.283-1.17c0.399-1.375,1.043-2.533,2.71-2.469
		c1.564,0.059,2.087,1.277,2.46,2.537C296.218,387.41,296.193,387.965,296.211,388.164z"/>
	<path fill-rule="evenodd" clip-rule="evenodd" fill="#708093" d="M418.877,427.922c-0.027-3,1.217-4.861,2.865-4.688
		c1.525,0.156,2.75,2.436,2.479,4.654c-0.043,0.398-0.075,0.805-0.199,1.178c-0.365,1.193-0.879,2.32-2.346,2.361
		c-1.558,0.039-2.17-1.119-2.626-2.338C418.867,428.602,418.893,428.047,418.877,427.922z"/>
	<path fill-rule="evenodd" clip-rule="evenodd" fill="#708093" d="M506.1,427.467c-0.051,0.465-0.025,0.953-0.166,1.391
		c-0.438,1.303-1.02,2.662-2.669,2.563c-1.582-0.102-2.195-1.352-2.461-2.768c-0.215-1.135-0.19-2.279,0.224-3.363
		c0.408-1.037,1.013-1.947,2.245-2.039c1.302-0.1,1.874,0.861,2.345,1.865C505.975,425.852,506.114,426.639,506.1,427.467z"/>
	<path fill-rule="evenodd" clip-rule="evenodd" fill="#D2DCE7" d="M305.075,240.784c0.132,0.15,0.257,0.3,0.38,0.449
		c-0.927,0.414-1.805,1.001-2.974,0.828C303.344,241.63,304.214,241.215,305.075,240.784z"/>
	<path fill-rule="evenodd" clip-rule="evenodd" fill="#F4D8B2" d="M347.85,260.561c0.135,0.143,0.266,0.283,0.398,0.422
		c-0.822,0.391-1.633,0.781-2.445,1.178C346.217,261.199,347.087,260.951,347.85,260.561z"/>
	<path fill-rule="evenodd" clip-rule="evenodd" fill="#EDB188" d="M282.375,221.83c0.39-0.92,1.102-1.201,2.038-1.094
		C283.732,221.1,283.055,221.466,282.375,221.83z"/>
	<path fill-rule="evenodd" clip-rule="evenodd" fill="#42668F" d="M140.273,270.279c0.158-0.133,0.315-0.264,0.464-0.398
		c0.68,0.275,1.583,0.299,1.657,1.574C141.59,271.008,140.937,270.643,140.273,270.279z"/>
	<path fill-rule="evenodd" clip-rule="evenodd" fill="#F4D8B2" d="M174.622,261.033c0.166-0.033,0.331-0.059,0.498-0.082
		c0.828,0.049,1.409,0.586,2.585,1.092C176.162,262.109,175.402,261.564,174.622,261.033z"/>
	<path fill-rule="evenodd" clip-rule="evenodd" fill="#D8E1EB" d="M299.393,110.763c-0.125,0.132-0.241,0.272-0.374,0.415
		c-0.579-0.292-1.169-0.582-2.071-1.028C298.124,109.959,298.754,110.381,299.393,110.763z"/>
	<path fill-rule="evenodd" clip-rule="evenodd" fill="#F2D4AE" d="M341.803,99.031c-0.134,0.142-0.266,0.291-0.399,0.432
		c-0.538-0.207-1.108-0.364-1.458-1.061C340.676,98.484,341.287,98.568,341.803,99.031z"/>
	<path fill-rule="evenodd" clip-rule="evenodd" fill="#9399B7" d="M142.809,271.314c1.193-0.023,1.715,0.24,2.162,0.836
		C144.199,272.342,143.704,271.986,142.809,271.314z"/>
	<path fill-rule="evenodd" clip-rule="evenodd" fill="#ACC1D8" d="M222.674,111.559c-0.141-0.133-0.281-0.265-0.414-0.398
		c0.556-0.266,1.11-0.514,2.005-0.927C223.834,111.252,223.171,111.309,222.674,111.559z"/>
	<path fill-rule="evenodd" clip-rule="evenodd" fill="#F4D6BE" d="M240.007,221.033c0.537,0.2,1.076,0.381,1.564,1.078
		c-0.853-0.083-1.448-0.232-1.963-0.638C239.608,221.2,239.865,221.174,240.007,221.033z"/>
	<path fill-rule="evenodd" clip-rule="evenodd" fill="#EBAD82" d="M240.007,221.033c-0.133,0.149-0.265,0.299-0.399,0.439
		c-0.479-0.156-1.001-0.224-1.259-0.779C239.021,220.304,239.451,220.984,240.007,221.033z"/>
	<path fill-rule="evenodd" clip-rule="evenodd" fill="#8691B2" d="M372.97,80.383c-0.712-0.101-1.194-0.208-1.507-0.829
		C372.1,79.462,372.58,79.579,372.97,80.383z"/>
	<path fill-rule="evenodd" clip-rule="evenodd" fill="#BCCDE0" d="M216.212,240.793c0.173-0.009,0.348-0.024,0.513-0.042
		c0.482,0.018,0.863,0.232,1.426,0.78C217.223,241.555,216.684,241.282,216.212,240.793z"/>
	<path fill-rule="evenodd" clip-rule="evenodd" fill="#EEBC98" d="M280.022,131.392c-0.033,0.125-0.033,0.257-0.009,0.39
		c-0.415-0.009-0.771-0.142-0.969-0.515c-0.025-0.042,0.082-0.239,0.157-0.256C279.558,130.927,279.822,131.085,280.022,131.392z"/>
	<path fill-rule="evenodd" clip-rule="evenodd" fill="#F4D6AC" d="M181.083,99.445c0.018-0.14,0.035-0.281,0.05-0.421
		c0.215-0.375,0.556-0.505,1.061-0.439C182.087,99.247,181.506,99.263,181.083,99.445z"/>
	<path fill-rule="evenodd" clip-rule="evenodd" fill="#989EBB" d="M379.797,271.506c-0.432,0.332-0.869,0.547-1.418,0.197
		c0.184-0.445,0.613-0.455,0.953-0.611C379.515,271.191,379.756,271.23,379.797,271.506z"/>
	<path fill-rule="evenodd" clip-rule="evenodd" fill="#818AAE" d="M379.797,271.506c-0.157-0.141-0.307-0.283-0.465-0.414
		c0.397-0.15,0.796-0.309,1.192-0.457c0,0.133,0,0.266,0,0.408C380.401,271.389,380.111,271.455,379.797,271.506z"/>
	<path fill-rule="evenodd" clip-rule="evenodd" fill="#ACB4BE" d="M100.821,413.15c0.033-0.33-0.25-0.885,0.315-0.895
		c0.447,0,0.462,0.514,0.421,0.912C101.319,413.16,101.069,413.16,100.821,413.15z"/>
	<path fill-rule="evenodd" clip-rule="evenodd" fill="#174477" d="M92.237,303.699c-0.075-8.01-3.28-12.354-10.918-15.004
		c-5.403-1.879-10.986-2.402-16.669-2.402c-13.372-0.008-26.759-0.057-40.14-0.107c-1.102-0.008-1.6,0.373-1.566,1.523
		c0.05,1.674,0.026,3.348,0.017,5.023c-0.017,2.518-0.033,2.51,2.583,2.475c1.352-0.023,2.71,0.158,4.036-0.006
		c1.864-0.232,2.46,0.404,2.443,2.285c-0.082,7.738-0.033,15.469-0.033,23.207c0,7.871-0.033,15.732,0.017,23.602
		c0.016,1.633-0.447,2.33-2.171,2.197c-1.806-0.141-3.628,0-5.452-0.043c-1.027-0.025-1.457,0.389-1.441,1.426
		c0.041,2.014,0.059,4.035,0,6.047c-0.042,1.293,0.589,1.568,1.739,1.568c11.227-0.033,22.452-0.033,33.688-0.01
		c1.159,0.01,1.739-0.283,1.674-1.582c-0.083-1.939-0.083-3.895,0-5.842c0.057-1.26-0.432-1.664-1.641-1.615
		c-1.805,0.066-3.628-0.082-5.436,0.051c-1.623,0.107-2.086-0.48-2.07-2.072c0.066-5.236,0.018-10.488-0.042-15.732
		c-0.015-1.352,0.605-1.756,1.848-1.709c5.642,0.219,11.284,0.135,16.935-0.055c4.648-0.158,9.23-0.746,13.563-2.596
		c5.286-2.252,8.26-6.195,8.823-11.969C92.305,309.467,92.263,306.582,92.237,303.699z M73.845,311.463
		c-0.331,2.717-1.757,4.4-4.257,5.328c-1.707,0.639-3.481,1.025-5.302,1.066c-3.754,0.084-7.524,0.076-11.277,0.225
		c-1.564,0.059-2.154-0.373-2.088-2.029c0.125-3.148,0.035-6.313,0.035-9.471c0-3.297,0.007-6.586-0.008-9.883
		c0-0.895,0.041-1.559,1.259-1.525c4.82,0.15,9.676-0.279,14.48,0.488c1.4,0.225,2.768,0.566,4.027,1.219
		c1.847,0.953,3.032,2.379,3.206,4.541C74.176,304.77,74.277,308.107,73.845,311.463z"/>
	<path fill-rule="evenodd" clip-rule="evenodd" fill="#174477" d="M365.72,347.676c-0.92-1.076-2.782-0.33-4.232-0.381
		c-1.078-0.033-1.574-0.322-1.567-1.492c0.033-8.408,0.027-16.811,0-25.219c0-1.002,0.307-1.424,1.377-1.475
		c1.516-0.066,3.503,0.754,4.414-0.389c0.912-1.143,0.191-3.105,0.274-4.705c0.026-0.473-0.05-0.945,0.018-1.41
		c0.19-1.375-0.456-1.705-1.733-1.689c-4.439,0.059-8.872,0.025-13.313,0.025c-4.689,0-4.689,0-4.864,4.805
		c-0.363-0.166-0.563-0.207-0.704-0.322c-8.053-6.645-16.99-6.611-26.163-3.092c-4.599,1.768-7.373,5.576-7.779,10.465
		c-0.563,6.686-0.695,13.422,0.091,20.125c0.737,6.295,4.457,10.719,10.498,12.385c7.539,2.072,14.629,1.068,21.158-3.363
		c0.572-0.389,1.061-0.961,2.022-1.068c0,0.885,0.099,1.623-0.018,2.336c-0.297,1.93,0.563,2.334,2.353,2.303
		c4.972-0.125,9.951-0.041,14.93-0.041c3.514,0,3.538,0,3.496-3.49C365.961,350.518,366.59,348.695,365.72,347.676z
		 M343.773,339.533c-0.05,3.693-2.104,6.32-5.617,7.488c-2.17,0.721-4.374,0.662-6.544,0.1c-2.785-0.721-4.228-2.867-4.292-6.281
		c-0.051-2.541-0.009-5.104-0.009-7.652c0-2.486-0.05-4.973,0.009-7.459c0.107-4.059,1.979-6.105,5.973-6.811
		c1.773-0.313,3.488-0.164,5.187,0.232c3.224,0.764,5.244,3.189,5.294,6.488C343.84,330.27,343.849,334.9,343.773,339.533z"/>
	<path fill-rule="evenodd" clip-rule="evenodd" fill="#174477" d="M170.214,335.258c4.641,0.082,9.279,0.031,13.92,0.031
		c0,0.035,0,0.076,0,0.117c4.697,0,9.395,0.008,14.101,0c1.035,0,2.104,0.066,2.038-1.492c-0.092-2.477-0.009-4.977-0.232-7.447
		c-0.521-5.551-2.866-10.115-7.986-12.717c-10.107-5.139-20.381-5.227-30.637-0.424c-4.608,2.154-7.482,5.852-8.585,10.805
		c-1.233,5.566-1.025,11.219-0.414,16.842c0.664,5.975,3.679,10.439,9.297,12.635c10.124,3.951,20.331,3.943,30.348-0.564
		c4.266-1.912,6.769-5.326,7.763-9.906c0.307-1.408-0.083-1.824-1.441-1.807c-3.696,0.041-7.382,0.041-11.069,0
		c-1.209-0.018-1.838,0.463-2.171,1.607c-0.736,2.502-2.55,3.9-5.02,4.408c-6.794,1.408-12.213-0.939-11.922-9.381
		c0.007-0.205,0.024-0.414-0.009-0.604C167.944,335.77,168.616,335.232,170.214,335.258z M173.165,318.811
		c4.754-1.498,9.41-0.064,11.108,3.432c0.125,0.238,0.232,0.488,0.324,0.736c1.558,4.391,0.828,5.451-3.729,5.443
		c-1.409,0-2.825,0-4.234,0c-2.344,0-4.697,0.008-7.05,0c-0.662,0-1.26,0.049-1.409-0.961
		C167.613,323.568,169.668,319.904,173.165,318.811z"/>
	<path fill-rule="evenodd" clip-rule="evenodd" fill="#708091" d="M494.035,384.469c0-2.063-1.192-1.971-2.634-2.045
		c-1.616-0.084-1.914,0.703-1.905,2.07c0.057,6.188,0.057,12.377,0.065,18.566c0.009,0.555-0.042,1.109-0.089,2.086
		c-0.408-0.703-0.566-0.984-0.722-1.266c-2.678-4.631-8.063-4.896-11.203-0.555c-0.993,1.383-1.698,2.898-2.146,4.531
		c-1.457,5.367-1.283,10.762-0.189,16.154c0.306,1.516,0.902,2.941,1.706,4.283c2.66,4.441,8.634,5.916,12.493-0.563
		c0.134,0.887,0.149,1.5,0.324,2.055c0.53,1.648,1.973,1.027,3.081,1.127c1.186,0.1,1.218-0.805,1.218-1.641
		C494.026,414.336,493.994,399.406,494.035,384.469z M488.096,423.283c-0.729,1.541-1.847,2.66-3.68,2.686
		c-1.879,0.031-3.238-0.938-3.934-2.609c-1.981-4.807-2.014-9.637,0.092-14.426c0.753-1.699,2.177-2.609,3.992-2.543
		c1.806,0.066,3.082,1.076,3.785,2.834c0.889,2.203,1.344,4.48,1.293,6.852C489.702,418.602,489.172,421.014,488.096,423.283z"/>
	<path fill-rule="evenodd" clip-rule="evenodd" fill="#708091" d="M380.426,389.986c-1.193-3.016-3.38-4.605-6.604-4.705
		c-2.56-0.076-5.12,0.064-7.663-0.107c-1.724-0.117-2.229,0.455-2.212,2.137c0.074,6.785,0.033,13.58,0.033,20.373
		c0,6.992,0.041,13.984-0.024,20.984c-0.018,2.195,1.325,2.221,2.925,2.305c1.806,0.09,1.904-0.93,1.889-2.297
		c-0.032-4.506-0.009-9.012-0.009-13.52c0-4.564,0-4.59,4.573-4.797c3.314-0.148,5.766-1.459,7.074-4.682
		C382.529,400.434,382.506,395.23,380.426,389.986z M375.803,402.439c-0.738,1.268-4.531,2.287-5.916,1.814
		c-0.836-0.299-0.794-0.996-0.803-1.656c-0.016-1.676-0.008-3.357-0.008-5.039l0,0c0-1.408,0.141-2.832-0.042-4.217
		c-0.216-1.633,0.531-1.773,1.84-1.689c2.145,0.141,4.282,0.355,5.219,2.65C377.186,397.006,377.318,399.813,375.803,402.439z"/>
	<path fill-rule="evenodd" clip-rule="evenodd" fill="#708093" d="M164.763,417.07c1.939,0.141,3.902,0.033,5.85,0.033
		c1.955,0,3.902-0.066,5.849,0.023c1.392,0.066,1.938-0.396,1.856-1.838c-0.134-2.418-0.381-4.814-1.003-7.158
		c-0.191-0.713-0.456-1.408-0.754-2.08c-1.459-3.314-3.803-5.543-7.557-5.816c-3.977-0.289-6.709,1.865-8.392,5.172
		c-3.539,6.949-3.414,14.115-0.364,21.191c1.383,3.189,3.861,5.334,7.555,5.525c3.845,0.199,6.463-1.789,8.394-4.922
		c2.235-3.637,2.169-3.918-0.795-6.287c-0.946-0.746-1.286-0.555-1.724,0.455c-1.093,2.527-2.618,4.764-5.767,4.398
		c-3.247-0.379-4.134-3.039-4.754-5.766c-0.066-0.256-0.116-0.521-0.167-0.787C162.676,417.758,162.99,416.938,164.763,417.07z
		 M163.72,410.145c1.027-3.051,2.675-4.234,5.476-3.92c2.155,0.24,3.886,2.354,4.217,5.014c0.108,0.902-0.215,1.232-1.078,1.225
		c-1.275-0.016-2.551-0.008-3.826,0c-1.069,0-2.147,0.008-3.216,0C163.09,412.447,162.999,412.314,163.72,410.145z"/>
	<path fill-rule="evenodd" clip-rule="evenodd" fill="#708093" d="M138.086,402.928c0-0.979-0.1-1.574-1.358-1.699
		c-2.883-0.281-3.017-0.232-3.314,3.563c-0.43-0.721-0.629-1.061-0.844-1.391c-2.552-3.91-7.018-4.301-10.225-0.879
		c-1.217,1.293-2.029,2.824-2.583,4.508c-1.516,4.555-1.558,9.229-1.013,13.934c0.34,2.975,1.111,5.801,2.951,8.234
		c2.899,3.838,7.639,3.928,10.638,0.227c0.314-0.391,0.406-1.021,1.168-1.129c0,0.35,0.008,0.672-0.008,0.986
		c-0.05,2.129,1.492,1.508,2.684,1.641c1.441,0.148,1.921-0.363,1.905-1.781C138.054,420.41,138.069,411.668,138.086,402.928z
		 M132.104,423.457c-0.896,1.559-2.087,2.66-4.009,2.502c-1.865-0.139-3.059-1.25-3.712-2.949c-1.79-4.656-1.716-9.287,0.182-13.893
		c0.688-1.65,1.939-2.609,3.67-2.727c1.748-0.115,3.074,0.77,3.953,2.287c1.308,2.236,1.474,4.697,1.441,7.191
		C133.678,418.512,133.446,421.096,132.104,423.457z"/>
	<path fill-rule="evenodd" clip-rule="evenodd" fill="#708091" d="M54.766,404.08c-4.009-5.219-10.166-5.145-14.075,0.131
		c-4.748,6.389-4.847,16.893-0.225,23.555c4.002,5.758,10.381,5.84,14.542,0.191c2.577-3.504,3.471-7.508,3.446-11.773
		C58.502,411.76,57.5,407.643,54.766,404.08z M51.742,423.467c-2.204,3.297-5.626,3.297-7.831,0.033
		c-2.601-3.846-2.684-10.531-0.182-14.342c2.413-3.68,5.701-3.695,8.144-0.041c1.442,2.154,1.832,4.564,1.74,7.215
		C53.797,418.834,53.2,421.279,51.742,423.467z"/>
	<path fill-rule="evenodd" clip-rule="evenodd" fill="#708091" d="M317.934,403.766c-3.605-4.551-9.113-4.756-13.032-0.457
		c-3.331,3.637-4.332,8.078-4.317,13.404c-0.115,3.662,0.889,7.574,3.299,11.061c3.91,5.66,10.273,5.783,14.432,0.314
		C323.311,421.535,323.137,410.336,317.934,403.766z M315.125,423.416c-1.982,3.348-5.393,3.447-7.647,0.289
		c-1.623-2.27-2.171-4.861-2.087-7.736c-0.166-2.594,0.52-5.088,2.063-7.301c2.212-3.154,5.689-3.039,7.663,0.258
		C317.976,413.732,317.967,418.611,315.125,423.416z"/>
	<path fill-rule="evenodd" clip-rule="evenodd" fill="#708091" d="M234.142,403.625c-3.637-4.5-9.47-4.525-13.175-0.061
		c-5.458,6.572-5.467,18.6-0.024,25.152c3.762,4.525,9.378,4.516,13.164,0.025c3.116-3.695,4.093-8.061,4.061-12.717
		C238.274,411.402,237.064,407.234,234.142,403.625z M231.407,423.615c-2.278,3.213-5.824,3.115-7.822-0.266
		c-1.275-2.17-2.013-4.523-2.087-7.307c0.091-2.492,0.788-5.07,2.312-7.35c2.013-3.023,5.286-3.049,7.464-0.125
		C234.106,412.379,234.174,419.703,231.407,423.615z"/>
</g>
</svg>
